<svg width="20" height="20" viewBox="0 0 20 20" fill="none" xmlns="http://www.w3.org/2000/svg">
<path d="M7.1809 12.1128C7.15142 12.1128 7.12195 12.1144 7.09247 12.1151C7.06255 12.1144 7.0342 12.1128 7.00382 12.1128C3.88761 12.1128 1.32557 13.1227 1.02115 15.9611C1.01328 16.0345 1.0063 16.6559 1 16.9907C2.6778 18.3 4.71605 19.0002 7.09225 19C9.44279 19 11.5143 18.2746 13.1847 16.9907C13.1791 16.6559 13.171 16.0345 13.1636 15.9611C12.8592 13.1227 10.2973 12.1128 7.1809 12.1128ZM7.09247 10.4332C8.81978 10.4332 10.2195 8.68208 10.2195 6.52181C10.2195 4.3613 8.81955 3.09889 7.09247 3.09889C5.36585 3.09889 3.96591 4.3613 3.96591 6.52181C3.96614 8.68208 5.36585 10.4332 7.09247 10.4332ZM16.0984 4.94951V2H15.0013V4.94928H12.1V6.06418H15.0016V9.01347H16.0987V6.06441H19V4.94951H16.0984Z" fill="#101115"/>
</svg>
